<?xml version="1.0" encoding="UTF-8" standalone="no"?>
<!-- Generator: Adobe Illustrator 18.1.0, SVG Export Plug-In . SVG Version: 6.00 Build 0)  -->

<svg
   xmlns:dc="http://purl.org/dc/elements/1.1/"
   xmlns:cc="http://creativecommons.org/ns#"
   xmlns:rdf="http://www.w3.org/1999/02/22-rdf-syntax-ns#"
   xmlns:svg="http://www.w3.org/2000/svg"
   xmlns="http://www.w3.org/2000/svg"
   xmlns:sodipodi="http://sodipodi.sourceforge.net/DTD/sodipodi-0.dtd"
   xmlns:inkscape="http://www.inkscape.org/namespaces/inkscape"
   version="1.1"
   id="Calque_1"
   x="0px"
   y="0px"
   viewBox="0 0 390.50001 120.1999"
   enable-background="new 0 0 600 600"
   xml:space="preserve"
   sodipodi:docname="vibent.svg"
   width="103.31979mm"
   height="31.802891mm"
   inkscape:version="0.92.3 (2405546, 2018-03-11)"><metadata
   id="metadata35"><rdf:RDF><cc:Work
       rdf:about=""><dc:format>image/svg+xml</dc:format><dc:type
         rdf:resource="http://purl.org/dc/dcmitype/StillImage" /><dc:title></dc:title></cc:Work></rdf:RDF></metadata><defs
   id="defs33" /><sodipodi:namedview
   pagecolor="#ffffff"
   bordercolor="#666666"
   borderopacity="1"
   objecttolerance="10"
   gridtolerance="10"
   guidetolerance="10"
   inkscape:pageopacity="0"
   inkscape:pageshadow="2"
   inkscape:window-width="1920"
   inkscape:window-height="1005"
   id="namedview31"
   showgrid="false"
   units="mm"
   fit-margin-top="0"
   fit-margin-left="0"
   fit-margin-right="0"
   fit-margin-bottom="0"
   inkscape:zoom="0.39333333"
   inkscape:cx="187.89999"
   inkscape:cy="30.599696"
   inkscape:window-x="-9"
   inkscape:window-y="-9"
   inkscape:window-maximized="1"
   inkscape:current-layer="Calque_1" />
<circle
   cx="338.69998"
   cy="35.799999"
   r="35.799999"
   id="circle2"
   style="fill:#9c66a8" />
<circle
   cx="362"
   cy="80.400101"
   r="28.5"
   id="circle4"
   style="opacity:0.72000002;fill:#ed485d" />
<circle
   cx="35"
   cy="85.199905"
   r="35"
   id="circle6"
   style="fill:#84d4f0" />
<circle
   cx="25.199997"
   cy="24.500195"
   r="17.200001"
   id="circle8"
   style="fill:#7687c0" />
<circle
   cx="82.099991"
   cy="33.000195"
   r="33"
   id="circle10"
   style="fill:#6ebf74" />
<g
   id="g26"
   transform="translate(-112.10001,-210.39977)">
	<path
   d="m 222.5,256.2 -19.4,43.3 h -9.2 l -19.4,-43.3 h 10.4 l 13.6,30.4 13.6,-30.4 h 3.9 z"
   id="path12"
   inkscape:connector-curvature="0" />
	<path
   d="m 228.3,299.5 v -43.3 h 9.5 v 43.3 z"
   id="path14"
   inkscape:connector-curvature="0" />
	<path
   d="m 268.3,299.5 h -20.6 v -43.2 h 17.8 0.2 c 1.4,0 2.8,0.1 4,0.4 1.2,0.3 2.4,0.7 3.4,1.2 2,1 3.6,2.3 4.7,4 1.3,2 2,4.4 2,7.2 0,2.5 -0.6,4.6 -1.7,6.4 1.6,1.2 2.8,2.7 3.7,4.4 0.8,1.8 1.3,3.7 1.3,5.8 0,2 -0.4,3.9 -1.2,5.7 -0.8,1.8 -1.9,3.3 -3.4,4.5 -1.3,1.2 -2.9,2.1 -4.6,2.7 -1.7,0.6 -3.6,0.9 -5.6,0.9 z m -11.1,-27.4 h 9.5 c 0.2,0 0.5,0 1,-0.1 0.5,-0.1 0.9,-0.3 1.3,-0.5 0.4,-0.2 0.7,-0.5 1,-0.8 0.2,-0.3 0.4,-0.9 0.4,-1.6 0,-0.3 0,-0.6 -0.1,-1 -0.1,-0.4 -0.2,-0.7 -0.5,-1.1 -0.3,-0.3 -0.7,-0.6 -1.4,-0.8 -0.6,-0.2 -1.5,-0.3 -2.7,-0.3 h -0.2 -0.1 -8.2 z m 0,17.9 h 11.1 c 0.2,0 0.6,0 1.2,-0.1 0.6,-0.1 1.2,-0.3 1.8,-0.5 0.6,-0.3 1.2,-0.7 1.6,-1.3 0.5,-0.6 0.7,-1.4 0.7,-2.4 0,-0.8 -0.1,-1.4 -0.4,-1.8 -0.3,-0.4 -0.5,-0.7 -0.8,-0.9 -1.2,-0.9 -3.1,-1.4 -5.6,-1.4 h -9.6 z"
   id="path16"
   inkscape:connector-curvature="0" />
	<path
   d="m 300.6,265.8 v 6.4 h 17.5 v 9.5 h -17.5 v 8.3 h 18.1 v 9.5 H 291 v -43.3 h 27.7 v 9.5 h -18.1 z"
   id="path18"
   inkscape:connector-curvature="0" />
	<path
   d="m 370.3,256.2 v 43.3 h -8.8 -1.4 l -22.2,-29 v 29 h -3.1 -6.4 v -43.3 h 10.5 l 22,28.6 v -28.6 h 4.9 z"
   id="path20"
   inkscape:connector-curvature="0" />
	<path
   d="M 412.9,265.8 H 400 v 33.8 h -9.5 v -33.8 h -12.8 v -9.5 h 35.2 z"
   id="path22"
   inkscape:connector-curvature="0" />
	<path
   d="m 431.6,293.5 c 0,1 -0.2,1.9 -0.6,2.7 -0.4,0.8 -0.9,1.6 -1.5,2.2 -0.6,0.6 -1.4,1.1 -2.2,1.5 -0.8,0.4 -1.7,0.6 -2.7,0.6 -1,0 -1.9,-0.2 -2.7,-0.6 -0.8,-0.4 -1.6,-0.9 -2.2,-1.5 -0.6,-0.6 -1.1,-1.3 -1.5,-2.2 -0.4,-0.8 -0.6,-1.7 -0.6,-2.7 0,-1 0.2,-1.9 0.6,-2.7 0.4,-0.8 0.9,-1.6 1.5,-2.2 0.6,-0.6 1.3,-1.1 2.2,-1.5 0.8,-0.4 1.7,-0.6 2.7,-0.6 1,0 1.9,0.2 2.7,0.6 0.8,0.4 1.6,0.9 2.2,1.5 0.6,0.6 1.1,1.4 1.5,2.2 0.4,0.8 0.6,1.7 0.6,2.7 z"
   id="path24"
   inkscape:connector-curvature="0" />
</g>
<rect
   x="23.399994"
   y="20.500195"
   stroke-miterlimit="10"
   width="338.70001"
   height="90.5"
   id="rect28"
   style="fill:none;stroke:#000000;stroke-width:10;stroke-miterlimit:10" />
</svg>